[img]http://img193.imageshack.us/img193/9584/winnief.jpg[/img]
[code]
Winnie The Pooh 2011 DVDRiP XViD - IMAGiNE

Ripper ...........: IMAGiNE                                        IMDB Rating.......:5.3/10                             
Video Codec.......: XVID                                         Release Date......:16/07/11
Audio Codec.......:MP3                                           Theatre Date......:15/07/11
Audio Bitrate.....:128                                              Runtime.......:1h 03mn
Subtitles.........:NIL                                                 Language..........:ENGLISH
Resolution...... 720 x 384                                      IMDb URL..........:http://www.imdb.com/title/tt1449283/

DETAILS:

Video
ID                               : 0
Format                           : MPEG-4 Visual
Format profile                   : Advanced Simple@L5
Format settings, BVOP            : 2
Format settings, QPel            : No
Format settings, GMC             : No warppoints
Format settings, Matrix          : Default (MPEG)
Muxing mode                      : Packed bitstream
Codec ID                         : XVID
Codec ID/Hint                    : XviD
Duration                         : 1h 3mn
Bit rate                         : 2 971 Kbps
Width                            : 720 pixels
Height                           : 384 pixels
Display aspect ratio             : 1.875
Frame rate                       : 23.976 fps
Color space                      : YUV
Chroma subsampling               : 4:2:0
Bit depth                        : 8 bits
Scan type                        : Progressive
Compression mode                 : Lossy
Bits/(Pixel*Frame)               : 0.448
Stream size                      : 1.31 GiB (96%)
Writing library                  : XviD 64

Audio
ID                               : 1
Format                           : MPEG Audio
Format version                   : Version 1
Format profile                   : Layer 3
Mode                             : Joint stereo
Codec ID                         : 55
Codec ID/Hint                    : MP3
Duration                         : 1h 3mn
Bit rate mode                    : Constant
Bit rate                         : 128 Kbps
Channel(s)                       : 2 channels
Sampling rate                    : 48.0 KHz
Compression mode                 : Lossy
Stream size                      : 57.7 MiB (4%)
Alignment                        : Split accross interleaves
Interleave, duration             : 42 ms (1.00 video frame)
Writing library                  : LAME3.98r

Plot:
During an ordinary day in Hundred Acre Wood, Winnie the Pooh sets out to find some honey.

SOURCES:
VIDEO: ........................ Winnie.The.Pooh.La.Pelicula.DVDR.NTSC.R4.Latino
AUDIO: ........................ Winnie.the.Pooh.RERIP.DVDRip.XviD-NeDiVx

NOTES:
IMAGiNE bringing you another release..........
Winnie The Pooh.........
Ok now for this one we used the R4 for the video
Made a script to resize and sharpen.........
Adjusted the rgb as the colors seemed off 
and made a bit darker as it 
brought the color out better
Audio is from the NeDivx release 
and was remuxed to this encode 
Enjoy Folks!

Uploader notes:
sorry i have uploaded for over more than 4 weeks i was on holiday i am now back so enjoy my ups as always unrarred!
[/code]
Screens:
[img]http://img88.imageshack.us/img88/392/83457201.jpg[/img]
[img]http://img808.imageshack.us/img808/6151/57301311.jpg[/img]
[img]http://img4.imageshack.us/img4/6327/52544064.jpg[/img]
[img]http://img200.imageshack.us/img200/57/71595624.jpg[/img]
[img]http://img225.imageshack.us/img225/5043/44652370.jpg[/img]
[img]http://img143.imageshack.us/img143/6089/79996906.jpg[/img]